<svg xmlns="http://www.w3.org/2000/svg" viewBox="0 0 1600 900">
  <rect width="1600" height="900" fill="#153425"/>
  <rect x="90" y="110" width="1420" height="680" rx="28" fill="#214b36"/>
  <path d="M180 640c120-150 270-210 430-210 181 0 251 70 402 70 143 0 261-44 406-171v281H180Z" fill="#2f6a4d"/>
  <path d="M180 560c74-98 153-148 242-148 88 0 153 30 232 91 80 61 147 91 236 91 90 0 188-52 300-163v209H180Z" fill="#52b788" fill-opacity=".56"/>
  <circle cx="1180" cy="250" r="110" fill="#c9a84c" fill-opacity=".7"/>
  <path d="M303 621h995" stroke="#f5f0e8" stroke-opacity=".22" stroke-width="20" stroke-linecap="round"/>
  <path d="M364 481v140M469 420v201M601 451v170M720 401v220M875 440v181M1010 385v236M1138 430v191" stroke="#b7e4c7" stroke-width="14" stroke-linecap="round"/>
</svg>
