<svg xmlns="http://www.w3.org/2000/svg" viewBox="0 0 1600 900">
  <defs>
    <linearGradient id="bg" x1="0" y1="0" x2="1" y2="1">
      <stop offset="0%" stop-color="#10261b"/>
      <stop offset="100%" stop-color="#2d6a4f"/>
    </linearGradient>
  </defs>
  <rect width="1600" height="900" fill="url(#bg)"/>
  <circle cx="1250" cy="150" r="180" fill="#52b788" fill-opacity=".18"/>
  <circle cx="1360" cy="720" r="240" fill="#c9a84c" fill-opacity=".13"/>
  <path d="M0 630C175 540 270 540 395 575c110 30 195 75 320 48 106-23 181-88 305-84 124 3 181 46 312 67 93 15 163 1 268-41V900H0Z" fill="#173628"/>
  <path d="M0 710c150-76 275-55 420-18 145 36 235 66 375 37 139-28 223-93 366-90 126 3 228 54 439 61V900H0Z" fill="#224632"/>
  <g fill="#b7e4c7" fill-opacity=".18">
    <circle cx="220" cy="570" r="48"/>
    <rect x="212" y="570" width="16" height="120" rx="8"/>
    <circle cx="330" cy="520" r="62"/>
    <rect x="320" y="520" width="18" height="160" rx="9"/>
    <circle cx="470" cy="560" r="54"/>
    <rect x="460" y="560" width="18" height="135" rx="9"/>
  </g>
</svg>
